<?xml version="1.0" encoding="utf-8"?>
<svg xmlns="http://www.w3.org/2000/svg" xmlns:xlink="http://www.w3.org/1999/xlink" width="500" height="300" viewBox="0 0 2000 1200">
<defs>
  <clipPath id="clip960">
    <rect x="0" y="0" width="2000" height="1200"/>
  </clipPath>
</defs>
<path clip-path="url(#clip960)" d="M0 1200 L2000 1200 L2000 0 L0 0  Z" fill="#ffffff" fill-rule="evenodd" fill-opacity="1"/>
<defs>
  <clipPath id="clip961">
    <rect x="400" y="0" width="1401" height="1200"/>
  </clipPath>
</defs>
<path clip-path="url(#clip960)" d="M182.274 1093.9 L1889.76 1093.9 L1889.76 47.2441 L182.274 47.2441  Z" fill="#ffffff" fill-rule="evenodd" fill-opacity="1"/>
<defs>
  <clipPath id="clip962">
    <rect x="182" y="47" width="1708" height="1048"/>
  </clipPath>
</defs>
<polyline clip-path="url(#clip962)" style="stroke:#000000; stroke-linecap:round; stroke-linejoin:round; stroke-width:2; stroke-opacity:0.1; fill:none" points="261.898,1093.9 261.898,47.2441 "/>
<polyline clip-path="url(#clip962)" style="stroke:#000000; stroke-linecap:round; stroke-linejoin:round; stroke-width:2; stroke-opacity:0.1; fill:none" points="500.089,1093.9 500.089,47.2441 "/>
<polyline clip-path="url(#clip962)" style="stroke:#000000; stroke-linecap:round; stroke-linejoin:round; stroke-width:2; stroke-opacity:0.1; fill:none" points="738.28,1093.9 738.28,47.2441 "/>
<polyline clip-path="url(#clip962)" style="stroke:#000000; stroke-linecap:round; stroke-linejoin:round; stroke-width:2; stroke-opacity:0.1; fill:none" points="976.471,1093.9 976.471,47.2441 "/>
<polyline clip-path="url(#clip962)" style="stroke:#000000; stroke-linecap:round; stroke-linejoin:round; stroke-width:2; stroke-opacity:0.1; fill:none" points="1214.66,1093.9 1214.66,47.2441 "/>
<polyline clip-path="url(#clip962)" style="stroke:#000000; stroke-linecap:round; stroke-linejoin:round; stroke-width:2; stroke-opacity:0.1; fill:none" points="1452.85,1093.9 1452.85,47.2441 "/>
<polyline clip-path="url(#clip962)" style="stroke:#000000; stroke-linecap:round; stroke-linejoin:round; stroke-width:2; stroke-opacity:0.1; fill:none" points="1691.04,1093.9 1691.04,47.2441 "/>
<polyline clip-path="url(#clip960)" style="stroke:#000000; stroke-linecap:round; stroke-linejoin:round; stroke-width:4; stroke-opacity:1; fill:none" points="182.274,1093.9 1889.76,1093.9 "/>
<polyline clip-path="url(#clip960)" style="stroke:#000000; stroke-linecap:round; stroke-linejoin:round; stroke-width:4; stroke-opacity:1; fill:none" points="261.898,1093.9 261.898,1075.01 "/>
<polyline clip-path="url(#clip960)" style="stroke:#000000; stroke-linecap:round; stroke-linejoin:round; stroke-width:4; stroke-opacity:1; fill:none" points="500.089,1093.9 500.089,1075.01 "/>
<polyline clip-path="url(#clip960)" style="stroke:#000000; stroke-linecap:round; stroke-linejoin:round; stroke-width:4; stroke-opacity:1; fill:none" points="738.28,1093.9 738.28,1075.01 "/>
<polyline clip-path="url(#clip960)" style="stroke:#000000; stroke-linecap:round; stroke-linejoin:round; stroke-width:4; stroke-opacity:1; fill:none" points="976.471,1093.9 976.471,1075.01 "/>
<polyline clip-path="url(#clip960)" style="stroke:#000000; stroke-linecap:round; stroke-linejoin:round; stroke-width:4; stroke-opacity:1; fill:none" points="1214.66,1093.9 1214.66,1075.01 "/>
<polyline clip-path="url(#clip960)" style="stroke:#000000; stroke-linecap:round; stroke-linejoin:round; stroke-width:4; stroke-opacity:1; fill:none" points="1452.85,1093.9 1452.85,1075.01 "/>
<polyline clip-path="url(#clip960)" style="stroke:#000000; stroke-linecap:round; stroke-linejoin:round; stroke-width:4; stroke-opacity:1; fill:none" points="1691.04,1093.9 1691.04,1075.01 "/>
<path clip-path="url(#clip960)" d="M261.898 1121.62 Q258.286 1121.62 256.458 1125.19 Q254.652 1128.73 254.652 1135.86 Q254.652 1142.97 256.458 1146.53 Q258.286 1150.07 261.898 1150.07 Q265.532 1150.07 267.337 1146.53 Q269.166 1142.97 269.166 1135.86 Q269.166 1128.73 267.337 1125.19 Q265.532 1121.62 261.898 1121.62 M261.898 1117.92 Q267.708 1117.92 270.763 1122.53 Q273.842 1127.11 273.842 1135.86 Q273.842 1144.59 270.763 1149.19 Q267.708 1153.78 261.898 1153.78 Q256.087 1153.78 253.009 1149.19 Q249.953 1144.59 249.953 1135.86 Q249.953 1127.11 253.009 1122.53 Q256.087 1117.92 261.898 1117.92 Z" fill="#000000" fill-rule="nonzero" fill-opacity="1" /><path clip-path="url(#clip960)" d="M474.776 1149.17 L482.415 1149.17 L482.415 1122.8 L474.105 1124.47 L474.105 1120.21 L482.369 1118.54 L487.045 1118.54 L487.045 1149.17 L494.684 1149.17 L494.684 1153.1 L474.776 1153.1 L474.776 1149.17 Z" fill="#000000" fill-rule="nonzero" fill-opacity="1" /><path clip-path="url(#clip960)" d="M514.128 1121.62 Q510.517 1121.62 508.688 1125.19 Q506.883 1128.73 506.883 1135.86 Q506.883 1142.97 508.688 1146.53 Q510.517 1150.07 514.128 1150.07 Q517.762 1150.07 519.568 1146.53 Q521.396 1142.97 521.396 1135.86 Q521.396 1128.73 519.568 1125.19 Q517.762 1121.62 514.128 1121.62 M514.128 1117.92 Q519.938 1117.92 522.994 1122.53 Q526.072 1127.11 526.072 1135.86 Q526.072 1144.59 522.994 1149.19 Q519.938 1153.78 514.128 1153.78 Q508.318 1153.78 505.239 1149.19 Q502.184 1144.59 502.184 1135.86 Q502.184 1127.11 505.239 1122.53 Q508.318 1117.92 514.128 1117.92 Z" fill="#000000" fill-rule="nonzero" fill-opacity="1" /><path clip-path="url(#clip960)" d="M717.053 1149.17 L733.373 1149.17 L733.373 1153.1 L711.428 1153.1 L711.428 1149.17 Q714.09 1146.41 718.674 1141.78 Q723.28 1137.13 724.461 1135.79 Q726.706 1133.27 727.586 1131.53 Q728.488 1129.77 728.488 1128.08 Q728.488 1125.33 726.544 1123.59 Q724.623 1121.85 721.521 1121.85 Q719.322 1121.85 716.868 1122.62 Q714.437 1123.38 711.66 1124.93 L711.66 1120.21 Q714.484 1119.08 716.937 1118.5 Q719.391 1117.92 721.428 1117.92 Q726.798 1117.92 729.993 1120.6 Q733.187 1123.29 733.187 1127.78 Q733.187 1129.91 732.377 1131.83 Q731.59 1133.73 729.484 1136.32 Q728.905 1136.99 725.803 1140.21 Q722.701 1143.4 717.053 1149.17 Z" fill="#000000" fill-rule="nonzero" fill-opacity="1" /><path clip-path="url(#clip960)" d="M753.187 1121.62 Q749.576 1121.62 747.747 1125.19 Q745.942 1128.73 745.942 1135.86 Q745.942 1142.97 747.747 1146.53 Q749.576 1150.07 753.187 1150.07 Q756.821 1150.07 758.627 1146.53 Q760.456 1142.97 760.456 1135.86 Q760.456 1128.73 758.627 1125.19 Q756.821 1121.62 753.187 1121.62 M753.187 1117.92 Q758.997 1117.92 762.053 1122.53 Q765.132 1127.11 765.132 1135.86 Q765.132 1144.59 762.053 1149.19 Q758.997 1153.78 753.187 1153.78 Q747.377 1153.78 744.298 1149.19 Q741.243 1144.59 741.243 1135.86 Q741.243 1127.11 744.298 1122.53 Q747.377 1117.92 753.187 1117.92 Z" fill="#000000" fill-rule="nonzero" fill-opacity="1" /><path clip-path="url(#clip960)" d="M965.314 1134.47 Q968.67 1135.19 970.545 1137.46 Q972.443 1139.72 972.443 1143.06 Q972.443 1148.17 968.925 1150.97 Q965.406 1153.78 958.925 1153.78 Q956.749 1153.78 954.434 1153.34 Q952.143 1152.92 949.689 1152.06 L949.689 1147.55 Q951.633 1148.68 953.948 1149.26 Q956.263 1149.84 958.786 1149.84 Q963.184 1149.84 965.476 1148.1 Q967.791 1146.37 967.791 1143.06 Q967.791 1140 965.638 1138.29 Q963.508 1136.55 959.689 1136.55 L955.661 1136.55 L955.661 1132.71 L959.874 1132.71 Q963.323 1132.71 965.152 1131.34 Q966.98 1129.96 966.98 1127.36 Q966.98 1124.7 965.082 1123.29 Q963.207 1121.85 959.689 1121.85 Q957.767 1121.85 955.568 1122.27 Q953.369 1122.69 950.73 1123.57 L950.73 1119.4 Q953.393 1118.66 955.707 1118.29 Q958.045 1117.92 960.105 1117.92 Q965.429 1117.92 968.531 1120.35 Q971.633 1122.76 971.633 1126.88 Q971.633 1129.75 969.99 1131.74 Q968.346 1133.71 965.314 1134.47 Z" fill="#000000" fill-rule="nonzero" fill-opacity="1" /><path clip-path="url(#clip960)" d="M991.309 1121.62 Q987.698 1121.62 985.869 1125.19 Q984.064 1128.73 984.064 1135.86 Q984.064 1142.97 985.869 1146.53 Q987.698 1150.07 991.309 1150.07 Q994.943 1150.07 996.749 1146.53 Q998.577 1142.97 998.577 1135.86 Q998.577 1128.73 996.749 1125.19 Q994.943 1121.62 991.309 1121.62 M991.309 1117.92 Q997.119 1117.92 1000.17 1122.53 Q1003.25 1127.11 1003.25 1135.86 Q1003.25 1144.59 1000.17 1149.19 Q997.119 1153.78 991.309 1153.78 Q985.499 1153.78 982.42 1149.19 Q979.365 1144.59 979.365 1135.86 Q979.365 1127.11 982.42 1122.53 Q985.499 1117.92 991.309 1117.92 Z" fill="#000000" fill-rule="nonzero" fill-opacity="1" /><path clip-path="url(#clip960)" d="M1202.83 1122.62 L1191.03 1141.07 L1202.83 1141.07 L1202.83 1122.62 M1201.61 1118.54 L1207.49 1118.54 L1207.49 1141.07 L1212.42 1141.07 L1212.42 1144.96 L1207.49 1144.96 L1207.49 1153.1 L1202.83 1153.1 L1202.83 1144.96 L1187.23 1144.96 L1187.23 1140.44 L1201.61 1118.54 Z" fill="#000000" fill-rule="nonzero" fill-opacity="1" /><path clip-path="url(#clip960)" d="M1230.15 1121.62 Q1226.54 1121.62 1224.71 1125.19 Q1222.9 1128.73 1222.9 1135.86 Q1222.9 1142.97 1224.71 1146.53 Q1226.54 1150.07 1230.15 1150.07 Q1233.78 1150.07 1235.59 1146.53 Q1237.42 1142.97 1237.42 1135.86 Q1237.42 1128.73 1235.59 1125.19 Q1233.78 1121.62 1230.15 1121.62 M1230.15 1117.92 Q1235.96 1117.92 1239.01 1122.53 Q1242.09 1127.11 1242.09 1135.86 Q1242.09 1144.59 1239.01 1149.19 Q1235.96 1153.78 1230.15 1153.78 Q1224.34 1153.78 1221.26 1149.19 Q1218.2 1144.59 1218.2 1135.86 Q1218.2 1127.11 1221.26 1122.53 Q1224.34 1117.92 1230.15 1117.92 Z" fill="#000000" fill-rule="nonzero" fill-opacity="1" /><path clip-path="url(#clip960)" d="M1427.55 1118.54 L1445.91 1118.54 L1445.91 1122.48 L1431.84 1122.48 L1431.84 1130.95 Q1432.85 1130.6 1433.87 1130.44 Q1434.89 1130.26 1435.91 1130.26 Q1441.7 1130.26 1445.08 1133.43 Q1448.46 1136.6 1448.46 1142.02 Q1448.46 1147.59 1444.98 1150.7 Q1441.51 1153.78 1435.19 1153.78 Q1433.02 1153.78 1430.75 1153.4 Q1428.5 1153.03 1426.09 1152.29 L1426.09 1147.59 Q1428.18 1148.73 1430.4 1149.28 Q1432.62 1149.84 1435.1 1149.84 Q1439.1 1149.84 1441.44 1147.73 Q1443.78 1145.63 1443.78 1142.02 Q1443.78 1138.4 1441.44 1136.3 Q1439.1 1134.19 1435.1 1134.19 Q1433.22 1134.19 1431.35 1134.61 Q1429.5 1135.03 1427.55 1135.9 L1427.55 1118.54 Z" fill="#000000" fill-rule="nonzero" fill-opacity="1" /><path clip-path="url(#clip960)" d="M1467.67 1121.62 Q1464.06 1121.62 1462.23 1125.19 Q1460.42 1128.73 1460.42 1135.86 Q1460.42 1142.97 1462.23 1146.53 Q1464.06 1150.07 1467.67 1150.07 Q1471.3 1150.07 1473.11 1146.53 Q1474.94 1142.97 1474.94 1135.86 Q1474.94 1128.73 1473.11 1125.19 Q1471.3 1121.62 1467.67 1121.62 M1467.67 1117.92 Q1473.48 1117.92 1476.53 1122.53 Q1479.61 1127.11 1479.61 1135.86 Q1479.61 1144.59 1476.53 1149.19 Q1473.48 1153.78 1467.67 1153.78 Q1461.86 1153.78 1458.78 1149.19 Q1455.72 1144.59 1455.72 1135.86 Q1455.72 1127.11 1458.78 1122.53 Q1461.86 1117.92 1467.67 1117.92 Z" fill="#000000" fill-rule="nonzero" fill-opacity="1" /><path clip-path="url(#clip960)" d="M1676.45 1133.96 Q1673.3 1133.96 1671.45 1136.11 Q1669.62 1138.27 1669.62 1142.02 Q1669.62 1145.74 1671.45 1147.92 Q1673.3 1150.07 1676.45 1150.07 Q1679.6 1150.07 1681.43 1147.92 Q1683.28 1145.74 1683.28 1142.02 Q1683.28 1138.27 1681.43 1136.11 Q1679.6 1133.96 1676.45 1133.96 M1685.73 1119.31 L1685.73 1123.57 Q1683.97 1122.73 1682.17 1122.29 Q1680.39 1121.85 1678.63 1121.85 Q1674 1121.85 1671.54 1124.98 Q1669.11 1128.1 1668.76 1134.42 Q1670.13 1132.41 1672.19 1131.34 Q1674.25 1130.26 1676.73 1130.26 Q1681.94 1130.26 1684.95 1133.43 Q1687.98 1136.58 1687.98 1142.02 Q1687.98 1147.34 1684.83 1150.56 Q1681.68 1153.78 1676.45 1153.78 Q1670.45 1153.78 1667.28 1149.19 Q1664.11 1144.59 1664.11 1135.86 Q1664.11 1127.66 1668 1122.8 Q1671.89 1117.92 1678.44 1117.92 Q1680.2 1117.92 1681.98 1118.27 Q1683.79 1118.61 1685.73 1119.31 Z" fill="#000000" fill-rule="nonzero" fill-opacity="1" /><path clip-path="url(#clip960)" d="M1706.03 1121.62 Q1702.42 1121.62 1700.59 1125.19 Q1698.79 1128.73 1698.79 1135.86 Q1698.79 1142.97 1700.59 1146.53 Q1702.42 1150.07 1706.03 1150.07 Q1709.67 1150.07 1711.47 1146.53 Q1713.3 1142.97 1713.3 1135.86 Q1713.3 1128.73 1711.47 1125.19 Q1709.67 1121.62 1706.03 1121.62 M1706.03 1117.92 Q1711.84 1117.92 1714.9 1122.53 Q1717.98 1127.11 1717.98 1135.86 Q1717.98 1144.59 1714.9 1149.19 Q1711.84 1153.78 1706.03 1153.78 Q1700.22 1153.78 1697.14 1149.19 Q1694.09 1144.59 1694.09 1135.86 Q1694.09 1127.11 1697.14 1122.53 Q1700.22 1117.92 1706.03 1117.92 Z" fill="#000000" fill-rule="nonzero" fill-opacity="1" /><polyline clip-path="url(#clip962)" style="stroke:#000000; stroke-linecap:round; stroke-linejoin:round; stroke-width:2; stroke-opacity:0.1; fill:none" points="182.274,1064.28 1889.76,1064.28 "/>
<polyline clip-path="url(#clip962)" style="stroke:#000000; stroke-linecap:round; stroke-linejoin:round; stroke-width:2; stroke-opacity:0.1; fill:none" points="182.274,753.863 1889.76,753.863 "/>
<polyline clip-path="url(#clip962)" style="stroke:#000000; stroke-linecap:round; stroke-linejoin:round; stroke-width:2; stroke-opacity:0.1; fill:none" points="182.274,443.445 1889.76,443.445 "/>
<polyline clip-path="url(#clip962)" style="stroke:#000000; stroke-linecap:round; stroke-linejoin:round; stroke-width:2; stroke-opacity:0.1; fill:none" points="182.274,133.027 1889.76,133.027 "/>
<polyline clip-path="url(#clip960)" style="stroke:#000000; stroke-linecap:round; stroke-linejoin:round; stroke-width:4; stroke-opacity:1; fill:none" points="182.274,1093.9 182.274,47.2441 "/>
<polyline clip-path="url(#clip960)" style="stroke:#000000; stroke-linecap:round; stroke-linejoin:round; stroke-width:4; stroke-opacity:1; fill:none" points="182.274,1064.28 201.172,1064.28 "/>
<polyline clip-path="url(#clip960)" style="stroke:#000000; stroke-linecap:round; stroke-linejoin:round; stroke-width:4; stroke-opacity:1; fill:none" points="182.274,753.863 201.172,753.863 "/>
<polyline clip-path="url(#clip960)" style="stroke:#000000; stroke-linecap:round; stroke-linejoin:round; stroke-width:4; stroke-opacity:1; fill:none" points="182.274,443.445 201.172,443.445 "/>
<polyline clip-path="url(#clip960)" style="stroke:#000000; stroke-linecap:round; stroke-linejoin:round; stroke-width:4; stroke-opacity:1; fill:none" points="182.274,133.027 201.172,133.027 "/>
<path clip-path="url(#clip960)" d="M64.9365 1050.08 Q61.3254 1050.08 59.4967 1053.64 Q57.6912 1057.19 57.6912 1064.32 Q57.6912 1071.42 59.4967 1074.99 Q61.3254 1078.53 64.9365 1078.53 Q68.5707 1078.53 70.3763 1074.99 Q72.205 1071.42 72.205 1064.32 Q72.205 1057.19 70.3763 1053.64 Q68.5707 1050.08 64.9365 1050.08 M64.9365 1046.38 Q70.7467 1046.38 73.8022 1050.98 Q76.8809 1055.57 76.8809 1064.32 Q76.8809 1073.04 73.8022 1077.65 Q70.7467 1082.23 64.9365 1082.23 Q59.1264 1082.23 56.0477 1077.65 Q52.9921 1073.04 52.9921 1064.32 Q52.9921 1055.57 56.0477 1050.98 Q59.1264 1046.38 64.9365 1046.38 Z" fill="#000000" fill-rule="nonzero" fill-opacity="1" /><path clip-path="url(#clip960)" d="M85.0984 1075.68 L89.9827 1075.68 L89.9827 1081.56 L85.0984 1081.56 L85.0984 1075.68 Z" fill="#000000" fill-rule="nonzero" fill-opacity="1" /><path clip-path="url(#clip960)" d="M110.168 1050.08 Q106.557 1050.08 104.728 1053.64 Q102.922 1057.19 102.922 1064.32 Q102.922 1071.42 104.728 1074.99 Q106.557 1078.53 110.168 1078.53 Q113.802 1078.53 115.608 1074.99 Q117.436 1071.42 117.436 1064.32 Q117.436 1057.19 115.608 1053.64 Q113.802 1050.08 110.168 1050.08 M110.168 1046.38 Q115.978 1046.38 119.033 1050.98 Q122.112 1055.57 122.112 1064.32 Q122.112 1073.04 119.033 1077.65 Q115.978 1082.23 110.168 1082.23 Q104.358 1082.23 101.279 1077.65 Q98.2234 1073.04 98.2234 1064.32 Q98.2234 1055.57 101.279 1050.98 Q104.358 1046.38 110.168 1046.38 Z" fill="#000000" fill-rule="nonzero" fill-opacity="1" /><path clip-path="url(#clip960)" d="M140.33 1050.08 Q136.719 1050.08 134.89 1053.64 Q133.084 1057.19 133.084 1064.32 Q133.084 1071.42 134.89 1074.99 Q136.719 1078.53 140.33 1078.53 Q143.964 1078.53 145.769 1074.99 Q147.598 1071.42 147.598 1064.32 Q147.598 1057.19 145.769 1053.64 Q143.964 1050.08 140.33 1050.08 M140.33 1046.38 Q146.14 1046.38 149.195 1050.98 Q152.274 1055.57 152.274 1064.32 Q152.274 1073.04 149.195 1077.65 Q146.14 1082.23 140.33 1082.23 Q134.519 1082.23 131.441 1077.65 Q128.385 1073.04 128.385 1064.32 Q128.385 1055.57 131.441 1050.98 Q134.519 1046.38 140.33 1046.38 Z" fill="#000000" fill-rule="nonzero" fill-opacity="1" /><path clip-path="url(#clip960)" d="M65.9319 739.662 Q62.3208 739.662 60.4921 743.227 Q58.6865 746.768 58.6865 753.898 Q58.6865 761.004 60.4921 764.569 Q62.3208 768.111 65.9319 768.111 Q69.5661 768.111 71.3717 764.569 Q73.2004 761.004 73.2004 753.898 Q73.2004 746.768 71.3717 743.227 Q69.5661 739.662 65.9319 739.662 M65.9319 735.958 Q71.742 735.958 74.7976 740.565 Q77.8763 745.148 77.8763 753.898 Q77.8763 762.625 74.7976 767.231 Q71.742 771.815 65.9319 771.815 Q60.1217 771.815 57.043 767.231 Q53.9875 762.625 53.9875 753.898 Q53.9875 745.148 57.043 740.565 Q60.1217 735.958 65.9319 735.958 Z" fill="#000000" fill-rule="nonzero" fill-opacity="1" /><path clip-path="url(#clip960)" d="M86.0938 765.264 L90.978 765.264 L90.978 771.143 L86.0938 771.143 L86.0938 765.264 Z" fill="#000000" fill-rule="nonzero" fill-opacity="1" /><path clip-path="url(#clip960)" d="M111.163 739.662 Q107.552 739.662 105.723 743.227 Q103.918 746.768 103.918 753.898 Q103.918 761.004 105.723 764.569 Q107.552 768.111 111.163 768.111 Q114.797 768.111 116.603 764.569 Q118.432 761.004 118.432 753.898 Q118.432 746.768 116.603 743.227 Q114.797 739.662 111.163 739.662 M111.163 735.958 Q116.973 735.958 120.029 740.565 Q123.107 745.148 123.107 753.898 Q123.107 762.625 120.029 767.231 Q116.973 771.815 111.163 771.815 Q105.353 771.815 102.274 767.231 Q99.2187 762.625 99.2187 753.898 Q99.2187 745.148 102.274 740.565 Q105.353 735.958 111.163 735.958 Z" fill="#000000" fill-rule="nonzero" fill-opacity="1" /><path clip-path="url(#clip960)" d="M131.371 736.583 L149.728 736.583 L149.728 740.518 L135.654 740.518 L135.654 748.991 Q136.672 748.643 137.691 748.481 Q138.709 748.296 139.728 748.296 Q145.515 748.296 148.894 751.467 Q152.274 754.639 152.274 760.055 Q152.274 765.634 148.802 768.736 Q145.33 771.815 139.01 771.815 Q136.834 771.815 134.566 771.444 Q132.32 771.074 129.913 770.333 L129.913 765.634 Q131.996 766.768 134.219 767.324 Q136.441 767.879 138.918 767.879 Q142.922 767.879 145.26 765.773 Q147.598 763.666 147.598 760.055 Q147.598 756.444 145.26 754.338 Q142.922 752.231 138.918 752.231 Q137.043 752.231 135.168 752.648 Q133.316 753.065 131.371 753.944 L131.371 736.583 Z" fill="#000000" fill-rule="nonzero" fill-opacity="1" /><path clip-path="url(#clip960)" d="M64.9365 429.244 Q61.3254 429.244 59.4967 432.808 Q57.6912 436.35 57.6912 443.48 Q57.6912 450.586 59.4967 454.151 Q61.3254 457.693 64.9365 457.693 Q68.5707 457.693 70.3763 454.151 Q72.205 450.586 72.205 443.48 Q72.205 436.35 70.3763 432.808 Q68.5707 429.244 64.9365 429.244 M64.9365 425.54 Q70.7467 425.54 73.8022 430.146 Q76.8809 434.73 76.8809 443.48 Q76.8809 452.207 73.8022 456.813 Q70.7467 461.396 64.9365 461.396 Q59.1264 461.396 56.0477 456.813 Q52.9921 452.207 52.9921 443.48 Q52.9921 434.73 56.0477 430.146 Q59.1264 425.54 64.9365 425.54 Z" fill="#000000" fill-rule="nonzero" fill-opacity="1" /><path clip-path="url(#clip960)" d="M85.0984 454.845 L89.9827 454.845 L89.9827 460.725 L85.0984 460.725 L85.0984 454.845 Z" fill="#000000" fill-rule="nonzero" fill-opacity="1" /><path clip-path="url(#clip960)" d="M100.978 456.79 L108.617 456.79 L108.617 430.424 L100.307 432.091 L100.307 427.832 L108.571 426.165 L113.246 426.165 L113.246 456.79 L120.885 456.79 L120.885 460.725 L100.978 460.725 L100.978 456.79 Z" fill="#000000" fill-rule="nonzero" fill-opacity="1" /><path clip-path="url(#clip960)" d="M140.33 429.244 Q136.719 429.244 134.89 432.808 Q133.084 436.35 133.084 443.48 Q133.084 450.586 134.89 454.151 Q136.719 457.693 140.33 457.693 Q143.964 457.693 145.769 454.151 Q147.598 450.586 147.598 443.48 Q147.598 436.35 145.769 432.808 Q143.964 429.244 140.33 429.244 M140.33 425.54 Q146.14 425.54 149.195 430.146 Q152.274 434.73 152.274 443.48 Q152.274 452.207 149.195 456.813 Q146.14 461.396 140.33 461.396 Q134.519 461.396 131.441 456.813 Q128.385 452.207 128.385 443.48 Q128.385 434.73 131.441 430.146 Q134.519 425.54 140.33 425.54 Z" fill="#000000" fill-rule="nonzero" fill-opacity="1" /><path clip-path="url(#clip960)" d="M65.9319 118.825 Q62.3208 118.825 60.4921 122.39 Q58.6865 125.932 58.6865 133.062 Q58.6865 140.168 60.4921 143.733 Q62.3208 147.274 65.9319 147.274 Q69.5661 147.274 71.3717 143.733 Q73.2004 140.168 73.2004 133.062 Q73.2004 125.932 71.3717 122.39 Q69.5661 118.825 65.9319 118.825 M65.9319 115.122 Q71.742 115.122 74.7976 119.728 Q77.8763 124.312 77.8763 133.062 Q77.8763 141.788 74.7976 146.395 Q71.742 150.978 65.9319 150.978 Q60.1217 150.978 57.043 146.395 Q53.9875 141.788 53.9875 133.062 Q53.9875 124.312 57.043 119.728 Q60.1217 115.122 65.9319 115.122 Z" fill="#000000" fill-rule="nonzero" fill-opacity="1" /><path clip-path="url(#clip960)" d="M86.0938 144.427 L90.978 144.427 L90.978 150.307 L86.0938 150.307 L86.0938 144.427 Z" fill="#000000" fill-rule="nonzero" fill-opacity="1" /><path clip-path="url(#clip960)" d="M101.973 146.372 L109.612 146.372 L109.612 120.006 L101.302 121.673 L101.302 117.413 L109.566 115.747 L114.242 115.747 L114.242 146.372 L121.881 146.372 L121.881 150.307 L101.973 150.307 L101.973 146.372 Z" fill="#000000" fill-rule="nonzero" fill-opacity="1" /><path clip-path="url(#clip960)" d="M131.371 115.747 L149.728 115.747 L149.728 119.682 L135.654 119.682 L135.654 128.154 Q136.672 127.807 137.691 127.645 Q138.709 127.46 139.728 127.46 Q145.515 127.46 148.894 130.631 Q152.274 133.802 152.274 139.219 Q152.274 144.798 148.802 147.899 Q145.33 150.978 139.01 150.978 Q136.834 150.978 134.566 150.608 Q132.32 150.237 129.913 149.497 L129.913 144.798 Q131.996 145.932 134.219 146.487 Q136.441 147.043 138.918 147.043 Q142.922 147.043 145.26 144.936 Q147.598 142.83 147.598 139.219 Q147.598 135.608 145.26 133.501 Q142.922 131.395 138.918 131.395 Q137.043 131.395 135.168 131.812 Q133.316 132.228 131.371 133.108 L131.371 115.747 Z" fill="#000000" fill-rule="nonzero" fill-opacity="1" /><path clip-path="url(#clip962)" d="M276.189 1064.28 L276.189 1064.28 L295.244 1064.28 L295.244 1064.28 L276.189 1064.28 L276.189 1064.28  Z" fill="#ff0000" fill-rule="evenodd" fill-opacity="1"/>
<polyline clip-path="url(#clip962)" style="stroke:#ff0000; stroke-linecap:round; stroke-linejoin:round; stroke-width:4; stroke-opacity:1; fill:none" points="276.189,1064.28 276.189,1064.28 295.244,1064.28 295.244,1064.28 276.189,1064.28 "/>
<path clip-path="url(#clip962)" d="M300.008 1064.28 L300.008 1064.28 L319.063 1064.28 L319.063 1064.28 L300.008 1064.28 L300.008 1064.28  Z" fill="#ff0000" fill-rule="evenodd" fill-opacity="1"/>
<polyline clip-path="url(#clip962)" style="stroke:#ff0000; stroke-linecap:round; stroke-linejoin:round; stroke-width:4; stroke-opacity:1; fill:none" points="300.008,1064.28 300.008,1064.28 319.063,1064.28 300.008,1064.28 "/>
<path clip-path="url(#clip962)" d="M323.827 1064.28 L323.827 1064.28 L342.883 1064.28 L342.883 1064.28 L323.827 1064.28 L323.827 1064.28  Z" fill="#ff0000" fill-rule="evenodd" fill-opacity="1"/>
<polyline clip-path="url(#clip962)" style="stroke:#ff0000; stroke-linecap:round; stroke-linejoin:round; stroke-width:4; stroke-opacity:1; fill:none" points="323.827,1064.28 323.827,1064.28 342.883,1064.28 342.883,1064.28 323.827,1064.28 "/>
<path clip-path="url(#clip962)" d="M347.646 1064.28 L347.646 1064.28 L366.702 1064.28 L366.702 1064.28 L347.646 1064.28 L347.646 1064.28  Z" fill="#ff0000" fill-rule="evenodd" fill-opacity="1"/>
<polyline clip-path="url(#clip962)" style="stroke:#ff0000; stroke-linecap:round; stroke-linejoin:round; stroke-width:4; stroke-opacity:1; fill:none" points="347.646,1064.28 347.646,1064.28 366.702,1064.28 347.646,1064.28 "/>
<path clip-path="url(#clip962)" d="M371.465 1064.28 L371.465 1064.28 L390.521 1064.28 L390.521 1064.28 L371.465 1064.28 L371.465 1064.28  Z" fill="#ff0000" fill-rule="evenodd" fill-opacity="1"/>
<polyline clip-path="url(#clip962)" style="stroke:#ff0000; stroke-linecap:round; stroke-linejoin:round; stroke-width:4; stroke-opacity:1; fill:none" points="371.465,1064.28 371.465,1064.28 390.521,1064.28 390.521,1064.28 371.465,1064.28 "/>
<path clip-path="url(#clip962)" d="M395.285 1064.28 L395.285 1064.28 L414.34 1064.28 L414.34 1064.28 L395.285 1064.28 L395.285 1064.28  Z" fill="#ff0000" fill-rule="evenodd" fill-opacity="1"/>
<polyline clip-path="url(#clip962)" style="stroke:#ff0000; stroke-linecap:round; stroke-linejoin:round; stroke-width:4; stroke-opacity:1; fill:none" points="395.285,1064.28 395.285,1064.28 414.34,1064.28 395.285,1064.28 "/>
<path clip-path="url(#clip962)" d="M419.104 1064.22 L419.104 1064.28 L438.159 1064.28 L438.159 1064.22 L419.104 1064.22 L419.104 1064.22  Z" fill="#ff0000" fill-rule="evenodd" fill-opacity="1"/>
<polyline clip-path="url(#clip962)" style="stroke:#ff0000; stroke-linecap:round; stroke-linejoin:round; stroke-width:4; stroke-opacity:1; fill:none" points="419.104,1064.22 419.104,1064.28 438.159,1064.28 438.159,1064.22 419.104,1064.22 "/>
<path clip-path="url(#clip962)" d="M442.923 1064.28 L442.923 1064.28 L461.978 1064.28 L461.978 1064.28 L442.923 1064.28 L442.923 1064.28  Z" fill="#ff0000" fill-rule="evenodd" fill-opacity="1"/>
<polyline clip-path="url(#clip962)" style="stroke:#ff0000; stroke-linecap:round; stroke-linejoin:round; stroke-width:4; stroke-opacity:1; fill:none" points="442.923,1064.28 442.923,1064.28 461.978,1064.28 442.923,1064.28 "/>
<path clip-path="url(#clip962)" d="M466.742 1063.63 L466.742 1064.28 L485.797 1064.28 L485.797 1063.63 L466.742 1063.63 L466.742 1063.63  Z" fill="#ff0000" fill-rule="evenodd" fill-opacity="1"/>
<polyline clip-path="url(#clip962)" style="stroke:#ff0000; stroke-linecap:round; stroke-linejoin:round; stroke-width:4; stroke-opacity:1; fill:none" points="466.742,1063.63 466.742,1064.28 485.797,1064.28 485.797,1063.63 466.742,1063.63 "/>
<path clip-path="url(#clip962)" d="M490.561 1064.28 L490.561 1064.28 L509.616 1064.28 L509.616 1064.28 L490.561 1064.28 L490.561 1064.28  Z" fill="#ff0000" fill-rule="evenodd" fill-opacity="1"/>
<polyline clip-path="url(#clip962)" style="stroke:#ff0000; stroke-linecap:round; stroke-linejoin:round; stroke-width:4; stroke-opacity:1; fill:none" points="490.561,1064.28 490.561,1064.28 509.616,1064.28 490.561,1064.28 "/>
<path clip-path="url(#clip962)" d="M514.38 1059.75 L514.38 1064.28 L533.435 1064.28 L533.435 1059.75 L514.38 1059.75 L514.38 1059.75  Z" fill="#ff0000" fill-rule="evenodd" fill-opacity="1"/>
<polyline clip-path="url(#clip962)" style="stroke:#ff0000; stroke-linecap:round; stroke-linejoin:round; stroke-width:4; stroke-opacity:1; fill:none" points="514.38,1059.75 514.38,1064.28 533.435,1064.28 533.435,1059.75 514.38,1059.75 "/>
<path clip-path="url(#clip962)" d="M538.199 1064.28 L538.199 1064.28 L557.255 1064.28 L557.255 1064.28 L538.199 1064.28 L538.199 1064.28  Z" fill="#ff0000" fill-rule="evenodd" fill-opacity="1"/>
<polyline clip-path="url(#clip962)" style="stroke:#ff0000; stroke-linecap:round; stroke-linejoin:round; stroke-width:4; stroke-opacity:1; fill:none" points="538.199,1064.28 538.199,1064.28 557.255,1064.28 538.199,1064.28 "/>
<path clip-path="url(#clip962)" d="M562.018 1042.82 L562.018 1064.28 L581.074 1064.28 L581.074 1042.82 L562.018 1042.82 L562.018 1042.82  Z" fill="#ff0000" fill-rule="evenodd" fill-opacity="1"/>
<polyline clip-path="url(#clip962)" style="stroke:#ff0000; stroke-linecap:round; stroke-linejoin:round; stroke-width:4; stroke-opacity:1; fill:none" points="562.018,1042.82 562.018,1064.28 581.074,1064.28 581.074,1042.82 562.018,1042.82 "/>
<path clip-path="url(#clip962)" d="M585.838 1064.28 L585.838 1064.28 L604.893 1064.28 L604.893 1064.28 L585.838 1064.28 L585.838 1064.28  Z" fill="#ff0000" fill-rule="evenodd" fill-opacity="1"/>
<polyline clip-path="url(#clip962)" style="stroke:#ff0000; stroke-linecap:round; stroke-linejoin:round; stroke-width:4; stroke-opacity:1; fill:none" points="585.838,1064.28 585.838,1064.28 604.893,1064.28 585.838,1064.28 "/>
<path clip-path="url(#clip962)" d="M609.657 990.593 L609.657 1064.28 L628.712 1064.28 L628.712 990.593 L609.657 990.593 L609.657 990.593  Z" fill="#ff0000" fill-rule="evenodd" fill-opacity="1"/>
<polyline clip-path="url(#clip962)" style="stroke:#ff0000; stroke-linecap:round; stroke-linejoin:round; stroke-width:4; stroke-opacity:1; fill:none" points="609.657,990.593 609.657,1064.28 628.712,1064.28 628.712,990.593 609.657,990.593 "/>
<path clip-path="url(#clip962)" d="M633.476 1064.28 L633.476 1064.28 L652.531 1064.28 L652.531 1064.28 L633.476 1064.28 L633.476 1064.28  Z" fill="#ff0000" fill-rule="evenodd" fill-opacity="1"/>
<polyline clip-path="url(#clip962)" style="stroke:#ff0000; stroke-linecap:round; stroke-linejoin:round; stroke-width:4; stroke-opacity:1; fill:none" points="633.476,1064.28 633.476,1064.28 652.531,1064.28 633.476,1064.28 "/>
<path clip-path="url(#clip962)" d="M657.295 872.386 L657.295 1064.28 L676.35 1064.28 L676.35 872.386 L657.295 872.386 L657.295 872.386  Z" fill="#ff0000" fill-rule="evenodd" fill-opacity="1"/>
<polyline clip-path="url(#clip962)" style="stroke:#ff0000; stroke-linecap:round; stroke-linejoin:round; stroke-width:4; stroke-opacity:1; fill:none" points="657.295,872.386 657.295,1064.28 676.35,1064.28 676.35,872.386 657.295,872.386 "/>
<path clip-path="url(#clip962)" d="M681.114 1064.28 L681.114 1064.28 L700.169 1064.28 L700.169 1064.28 L681.114 1064.28 L681.114 1064.28  Z" fill="#ff0000" fill-rule="evenodd" fill-opacity="1"/>
<polyline clip-path="url(#clip962)" style="stroke:#ff0000; stroke-linecap:round; stroke-linejoin:round; stroke-width:4; stroke-opacity:1; fill:none" points="681.114,1064.28 681.114,1064.28 700.169,1064.28 681.114,1064.28 "/>
<path clip-path="url(#clip962)" d="M704.933 672.337 L704.933 1064.28 L723.988 1064.28 L723.988 672.337 L704.933 672.337 L704.933 672.337  Z" fill="#ff0000" fill-rule="evenodd" fill-opacity="1"/>
<polyline clip-path="url(#clip962)" style="stroke:#ff0000; stroke-linecap:round; stroke-linejoin:round; stroke-width:4; stroke-opacity:1; fill:none" points="704.933,672.337 704.933,1064.28 723.988,1064.28 723.988,672.337 704.933,672.337 "/>
<path clip-path="url(#clip962)" d="M728.752 1064.28 L728.752 1064.28 L747.808 1064.28 L747.808 1064.28 L728.752 1064.28 L728.752 1064.28  Z" fill="#ff0000" fill-rule="evenodd" fill-opacity="1"/>
<polyline clip-path="url(#clip962)" style="stroke:#ff0000; stroke-linecap:round; stroke-linejoin:round; stroke-width:4; stroke-opacity:1; fill:none" points="728.752,1064.28 728.752,1064.28 747.808,1064.28 728.752,1064.28 "/>
<path clip-path="url(#clip962)" d="M752.571 419.636 L752.571 1064.28 L771.627 1064.28 L771.627 419.636 L752.571 419.636 L752.571 419.636  Z" fill="#ff0000" fill-rule="evenodd" fill-opacity="1"/>
<polyline clip-path="url(#clip962)" style="stroke:#ff0000; stroke-linecap:round; stroke-linejoin:round; stroke-width:4; stroke-opacity:1; fill:none" points="752.571,419.636 752.571,1064.28 771.627,1064.28 771.627,419.636 752.571,419.636 "/>
<path clip-path="url(#clip962)" d="M776.39 1064.28 L776.39 1064.28 L795.446 1064.28 L795.446 1064.28 L776.39 1064.28 L776.39 1064.28  Z" fill="#ff0000" fill-rule="evenodd" fill-opacity="1"/>
<polyline clip-path="url(#clip962)" style="stroke:#ff0000; stroke-linecap:round; stroke-linejoin:round; stroke-width:4; stroke-opacity:1; fill:none" points="776.39,1064.28 776.39,1064.28 795.446,1064.28 776.39,1064.28 "/>
<path clip-path="url(#clip962)" d="M800.21 192.197 L800.21 1064.28 L819.265 1064.28 L819.265 192.197 L800.21 192.197 L800.21 192.197  Z" fill="#ff0000" fill-rule="evenodd" fill-opacity="1"/>
<polyline clip-path="url(#clip962)" style="stroke:#ff0000; stroke-linecap:round; stroke-linejoin:round; stroke-width:4; stroke-opacity:1; fill:none" points="800.21,192.197 800.21,1064.28 819.265,1064.28 819.265,192.197 800.21,192.197 "/>
<path clip-path="url(#clip962)" d="M824.029 1064.28 L824.029 1064.28 L843.084 1064.28 L843.084 1064.28 L824.029 1064.28 L824.029 1064.28  Z" fill="#ff0000" fill-rule="evenodd" fill-opacity="1"/>
<polyline clip-path="url(#clip962)" style="stroke:#ff0000; stroke-linecap:round; stroke-linejoin:round; stroke-width:4; stroke-opacity:1; fill:none" points="824.029,1064.28 824.029,1064.28 843.084,1064.28 824.029,1064.28 "/>
<path clip-path="url(#clip962)" d="M847.848 76.8665 L847.848 1064.28 L866.903 1064.28 L866.903 76.8665 L847.848 76.8665 L847.848 76.8665  Z" fill="#ff0000" fill-rule="evenodd" fill-opacity="1"/>
<polyline clip-path="url(#clip962)" style="stroke:#ff0000; stroke-linecap:round; stroke-linejoin:round; stroke-width:4; stroke-opacity:1; fill:none" points="847.848,76.8665 847.848,1064.28 866.903,1064.28 866.903,76.8665 847.848,76.8665 "/>
<path clip-path="url(#clip962)" d="M871.667 1064.28 L871.667 1064.28 L890.722 1064.28 L890.722 1064.28 L871.667 1064.28 L871.667 1064.28  Z" fill="#ff0000" fill-rule="evenodd" fill-opacity="1"/>
<polyline clip-path="url(#clip962)" style="stroke:#ff0000; stroke-linecap:round; stroke-linejoin:round; stroke-width:4; stroke-opacity:1; fill:none" points="871.667,1064.28 871.667,1064.28 890.722,1064.28 871.667,1064.28 "/>
<path clip-path="url(#clip962)" d="M895.486 114.844 L895.486 1064.28 L914.541 1064.28 L914.541 114.844 L895.486 114.844 L895.486 114.844  Z" fill="#ff0000" fill-rule="evenodd" fill-opacity="1"/>
<polyline clip-path="url(#clip962)" style="stroke:#ff0000; stroke-linecap:round; stroke-linejoin:round; stroke-width:4; stroke-opacity:1; fill:none" points="895.486,114.844 895.486,1064.28 914.541,1064.28 914.541,114.844 895.486,114.844 "/>
<path clip-path="url(#clip962)" d="M919.305 1064.28 L919.305 1064.28 L938.361 1064.28 L938.361 1064.28 L919.305 1064.28 L919.305 1064.28  Z" fill="#ff0000" fill-rule="evenodd" fill-opacity="1"/>
<polyline clip-path="url(#clip962)" style="stroke:#ff0000; stroke-linecap:round; stroke-linejoin:round; stroke-width:4; stroke-opacity:1; fill:none" points="919.305,1064.28 919.305,1064.28 938.361,1064.28 919.305,1064.28 "/>
<path clip-path="url(#clip962)" d="M943.124 279.363 L943.124 1064.28 L962.18 1064.28 L962.18 279.363 L943.124 279.363 L943.124 279.363  Z" fill="#ff0000" fill-rule="evenodd" fill-opacity="1"/>
<polyline clip-path="url(#clip962)" style="stroke:#ff0000; stroke-linecap:round; stroke-linejoin:round; stroke-width:4; stroke-opacity:1; fill:none" points="943.124,279.363 943.124,1064.28 962.18,1064.28 962.18,279.363 943.124,279.363 "/>
<path clip-path="url(#clip962)" d="M966.943 1064.28 L966.943 1064.28 L985.999 1064.28 L985.999 1064.28 L966.943 1064.28 L966.943 1064.28  Z" fill="#ff0000" fill-rule="evenodd" fill-opacity="1"/>
<polyline clip-path="url(#clip962)" style="stroke:#ff0000; stroke-linecap:round; stroke-linejoin:round; stroke-width:4; stroke-opacity:1; fill:none" points="966.943,1064.28 966.943,1064.28 985.999,1064.28 966.943,1064.28 "/>
<path clip-path="url(#clip962)" d="M990.763 500.403 L990.763 1064.28 L1009.82 1064.28 L1009.82 500.403 L990.763 500.403 L990.763 500.403  Z" fill="#ff0000" fill-rule="evenodd" fill-opacity="1"/>
<polyline clip-path="url(#clip962)" style="stroke:#ff0000; stroke-linecap:round; stroke-linejoin:round; stroke-width:4; stroke-opacity:1; fill:none" points="990.763,500.403 990.763,1064.28 1009.82,1064.28 1009.82,500.403 990.763,500.403 "/>
<path clip-path="url(#clip962)" d="M1014.58 1064.28 L1014.58 1064.28 L1033.64 1064.28 L1033.64 1064.28 L1014.58 1064.28 L1014.58 1064.28  Z" fill="#ff0000" fill-rule="evenodd" fill-opacity="1"/>
<polyline clip-path="url(#clip962)" style="stroke:#ff0000; stroke-linecap:round; stroke-linejoin:round; stroke-width:4; stroke-opacity:1; fill:none" points="1014.58,1064.28 1014.58,1064.28 1033.64,1064.28 1014.58,1064.28 "/>
<path clip-path="url(#clip962)" d="M1038.4 709.015 L1038.4 1064.28 L1057.46 1064.28 L1057.46 709.015 L1038.4 709.015 L1038.4 709.015  Z" fill="#ff0000" fill-rule="evenodd" fill-opacity="1"/>
<polyline clip-path="url(#clip962)" style="stroke:#ff0000; stroke-linecap:round; stroke-linejoin:round; stroke-width:4; stroke-opacity:1; fill:none" points="1038.4,709.015 1038.4,1064.28 1057.46,1064.28 1057.46,709.015 1038.4,709.015 "/>
<path clip-path="url(#clip962)" d="M1062.22 1064.28 L1062.22 1064.28 L1081.28 1064.28 L1081.28 1064.28 L1062.22 1064.28 L1062.22 1064.28  Z" fill="#ff0000" fill-rule="evenodd" fill-opacity="1"/>
<polyline clip-path="url(#clip962)" style="stroke:#ff0000; stroke-linecap:round; stroke-linejoin:round; stroke-width:4; stroke-opacity:1; fill:none" points="1062.22,1064.28 1062.22,1064.28 1081.28,1064.28 1062.22,1064.28 "/>
<path clip-path="url(#clip962)" d="M1086.04 866.384 L1086.04 1064.28 L1105.09 1064.28 L1105.09 866.384 L1086.04 866.384 L1086.04 866.384  Z" fill="#ff0000" fill-rule="evenodd" fill-opacity="1"/>
<polyline clip-path="url(#clip962)" style="stroke:#ff0000; stroke-linecap:round; stroke-linejoin:round; stroke-width:4; stroke-opacity:1; fill:none" points="1086.04,866.384 1086.04,1064.28 1105.09,1064.28 1105.09,866.384 1086.04,866.384 "/>
<path clip-path="url(#clip962)" d="M1109.86 1064.28 L1109.86 1064.28 L1128.91 1064.28 L1128.91 1064.28 L1109.86 1064.28 L1109.86 1064.28  Z" fill="#ff0000" fill-rule="evenodd" fill-opacity="1"/>
<polyline clip-path="url(#clip962)" style="stroke:#ff0000; stroke-linecap:round; stroke-linejoin:round; stroke-width:4; stroke-opacity:1; fill:none" points="1109.86,1064.28 1109.86,1064.28 1128.91,1064.28 1109.86,1064.28 "/>
<path clip-path="url(#clip962)" d="M1133.68 966.118 L1133.68 1064.28 L1152.73 1064.28 L1152.73 966.118 L1133.68 966.118 L1133.68 966.118  Z" fill="#ff0000" fill-rule="evenodd" fill-opacity="1"/>
<polyline clip-path="url(#clip962)" style="stroke:#ff0000; stroke-linecap:round; stroke-linejoin:round; stroke-width:4; stroke-opacity:1; fill:none" points="1133.68,966.118 1133.68,1064.28 1152.73,1064.28 1152.73,966.118 1133.68,966.118 "/>
<path clip-path="url(#clip962)" d="M1157.5 1064.28 L1157.5 1064.28 L1176.55 1064.28 L1176.55 1064.28 L1157.5 1064.28 L1157.5 1064.28  Z" fill="#ff0000" fill-rule="evenodd" fill-opacity="1"/>
<polyline clip-path="url(#clip962)" style="stroke:#ff0000; stroke-linecap:round; stroke-linejoin:round; stroke-width:4; stroke-opacity:1; fill:none" points="1157.5,1064.28 1157.5,1064.28 1176.55,1064.28 1157.5,1064.28 "/>
<path clip-path="url(#clip962)" d="M1181.32 1020.65 L1181.32 1064.28 L1200.37 1064.28 L1200.37 1020.65 L1181.32 1020.65 L1181.32 1020.65  Z" fill="#ff0000" fill-rule="evenodd" fill-opacity="1"/>
<polyline clip-path="url(#clip962)" style="stroke:#ff0000; stroke-linecap:round; stroke-linejoin:round; stroke-width:4; stroke-opacity:1; fill:none" points="1181.32,1020.65 1181.32,1064.28 1200.37,1064.28 1200.37,1020.65 1181.32,1020.65 "/>
<path clip-path="url(#clip962)" d="M1205.13 1064.28 L1205.13 1064.28 L1224.19 1064.28 L1224.19 1064.28 L1205.13 1064.28 L1205.13 1064.28  Z" fill="#ff0000" fill-rule="evenodd" fill-opacity="1"/>
<polyline clip-path="url(#clip962)" style="stroke:#ff0000; stroke-linecap:round; stroke-linejoin:round; stroke-width:4; stroke-opacity:1; fill:none" points="1205.13,1064.28 1205.13,1064.28 1224.19,1064.28 1205.13,1064.28 "/>
<path clip-path="url(#clip962)" d="M1228.95 1046.8 L1228.95 1064.28 L1248.01 1064.28 L1248.01 1046.8 L1228.95 1046.8 L1228.95 1046.8  Z" fill="#ff0000" fill-rule="evenodd" fill-opacity="1"/>
<polyline clip-path="url(#clip962)" style="stroke:#ff0000; stroke-linecap:round; stroke-linejoin:round; stroke-width:4; stroke-opacity:1; fill:none" points="1228.95,1046.8 1228.95,1064.28 1248.01,1064.28 1248.01,1046.8 1228.95,1046.8 "/>
<path clip-path="url(#clip962)" d="M1252.77 1064.28 L1252.77 1064.28 L1271.83 1064.28 L1271.83 1064.28 L1252.77 1064.28 L1252.77 1064.28  Z" fill="#ff0000" fill-rule="evenodd" fill-opacity="1"/>
<polyline clip-path="url(#clip962)" style="stroke:#ff0000; stroke-linecap:round; stroke-linejoin:round; stroke-width:4; stroke-opacity:1; fill:none" points="1252.77,1064.28 1252.77,1064.28 1271.83,1064.28 1252.77,1064.28 "/>
<path clip-path="url(#clip962)" d="M1276.59 1057.94 L1276.59 1064.28 L1295.65 1064.28 L1295.65 1057.94 L1276.59 1057.94 L1276.59 1057.94  Z" fill="#ff0000" fill-rule="evenodd" fill-opacity="1"/>
<polyline clip-path="url(#clip962)" style="stroke:#ff0000; stroke-linecap:round; stroke-linejoin:round; stroke-width:4; stroke-opacity:1; fill:none" points="1276.59,1057.94 1276.59,1064.28 1295.65,1064.28 1295.65,1057.94 1276.59,1057.94 "/>
<path clip-path="url(#clip962)" d="M1300.41 1064.28 L1300.41 1064.28 L1319.47 1064.28 L1319.47 1064.28 L1300.41 1064.28 L1300.41 1064.28  Z" fill="#ff0000" fill-rule="evenodd" fill-opacity="1"/>
<polyline clip-path="url(#clip962)" style="stroke:#ff0000; stroke-linecap:round; stroke-linejoin:round; stroke-width:4; stroke-opacity:1; fill:none" points="1300.41,1064.28 1300.41,1064.28 1319.47,1064.28 1300.41,1064.28 "/>
<path clip-path="url(#clip962)" d="M1324.23 1062.19 L1324.23 1064.28 L1343.29 1064.28 L1343.29 1062.19 L1324.23 1062.19 L1324.23 1062.19  Z" fill="#ff0000" fill-rule="evenodd" fill-opacity="1"/>
<polyline clip-path="url(#clip962)" style="stroke:#ff0000; stroke-linecap:round; stroke-linejoin:round; stroke-width:4; stroke-opacity:1; fill:none" points="1324.23,1062.19 1324.23,1064.28 1343.29,1064.28 1343.29,1062.19 1324.23,1062.19 "/>
<path clip-path="url(#clip962)" d="M1348.05 1064.28 L1348.05 1064.28 L1367.1 1064.28 L1367.1 1064.28 L1348.05 1064.28 L1348.05 1064.28  Z" fill="#ff0000" fill-rule="evenodd" fill-opacity="1"/>
<polyline clip-path="url(#clip962)" style="stroke:#ff0000; stroke-linecap:round; stroke-linejoin:round; stroke-width:4; stroke-opacity:1; fill:none" points="1348.05,1064.28 1348.05,1064.28 1367.1,1064.28 1348.05,1064.28 "/>
<path clip-path="url(#clip962)" d="M1371.87 1063.65 L1371.87 1064.28 L1390.92 1064.28 L1390.92 1063.65 L1371.87 1063.65 L1371.87 1063.65  Z" fill="#ff0000" fill-rule="evenodd" fill-opacity="1"/>
<polyline clip-path="url(#clip962)" style="stroke:#ff0000; stroke-linecap:round; stroke-linejoin:round; stroke-width:4; stroke-opacity:1; fill:none" points="1371.87,1063.65 1371.87,1064.28 1390.92,1064.28 1390.92,1063.65 1371.87,1063.65 "/>
<path clip-path="url(#clip962)" d="M1395.69 1064.28 L1395.69 1064.28 L1414.74 1064.28 L1414.74 1064.28 L1395.69 1064.28 L1395.69 1064.28  Z" fill="#ff0000" fill-rule="evenodd" fill-opacity="1"/>
<polyline clip-path="url(#clip962)" style="stroke:#ff0000; stroke-linecap:round; stroke-linejoin:round; stroke-width:4; stroke-opacity:1; fill:none" points="1395.69,1064.28 1395.69,1064.28 1414.74,1064.28 1395.69,1064.28 "/>
<path clip-path="url(#clip962)" d="M1419.51 1064.11 L1419.51 1064.28 L1438.56 1064.28 L1438.56 1064.11 L1419.51 1064.11 L1419.51 1064.11  Z" fill="#ff0000" fill-rule="evenodd" fill-opacity="1"/>
<polyline clip-path="url(#clip962)" style="stroke:#ff0000; stroke-linecap:round; stroke-linejoin:round; stroke-width:4; stroke-opacity:1; fill:none" points="1419.51,1064.11 1419.51,1064.28 1438.56,1064.28 1438.56,1064.11 1419.51,1064.11 "/>
<path clip-path="url(#clip962)" d="M1443.33 1064.28 L1443.33 1064.28 L1462.38 1064.28 L1462.38 1064.28 L1443.33 1064.28 L1443.33 1064.28  Z" fill="#ff0000" fill-rule="evenodd" fill-opacity="1"/>
<polyline clip-path="url(#clip962)" style="stroke:#ff0000; stroke-linecap:round; stroke-linejoin:round; stroke-width:4; stroke-opacity:1; fill:none" points="1443.33,1064.28 1443.33,1064.28 1462.38,1064.28 1443.33,1064.28 "/>
<path clip-path="url(#clip962)" d="M1467.14 1064.24 L1467.14 1064.28 L1486.2 1064.28 L1486.2 1064.24 L1467.14 1064.24 L1467.14 1064.24  Z" fill="#ff0000" fill-rule="evenodd" fill-opacity="1"/>
<polyline clip-path="url(#clip962)" style="stroke:#ff0000; stroke-linecap:round; stroke-linejoin:round; stroke-width:4; stroke-opacity:1; fill:none" points="1467.14,1064.24 1467.14,1064.28 1486.2,1064.28 1486.2,1064.24 1467.14,1064.24 "/>
<path clip-path="url(#clip962)" d="M1490.96 1064.28 L1490.96 1064.28 L1510.02 1064.28 L1510.02 1064.28 L1490.96 1064.28 L1490.96 1064.28  Z" fill="#ff0000" fill-rule="evenodd" fill-opacity="1"/>
<polyline clip-path="url(#clip962)" style="stroke:#ff0000; stroke-linecap:round; stroke-linejoin:round; stroke-width:4; stroke-opacity:1; fill:none" points="1490.96,1064.28 1490.96,1064.28 1510.02,1064.28 1490.96,1064.28 "/>
<path clip-path="url(#clip962)" d="M1514.78 1064.27 L1514.78 1064.28 L1533.84 1064.28 L1533.84 1064.27 L1514.78 1064.27 L1514.78 1064.27  Z" fill="#ff0000" fill-rule="evenodd" fill-opacity="1"/>
<polyline clip-path="url(#clip962)" style="stroke:#ff0000; stroke-linecap:round; stroke-linejoin:round; stroke-width:4; stroke-opacity:1; fill:none" points="1514.78,1064.27 1514.78,1064.28 1533.84,1064.28 1533.84,1064.27 1514.78,1064.27 "/>
<path clip-path="url(#clip962)" d="M1538.6 1064.28 L1538.6 1064.28 L1557.66 1064.28 L1557.66 1064.28 L1538.6 1064.28 L1538.6 1064.28  Z" fill="#ff0000" fill-rule="evenodd" fill-opacity="1"/>
<polyline clip-path="url(#clip962)" style="stroke:#ff0000; stroke-linecap:round; stroke-linejoin:round; stroke-width:4; stroke-opacity:1; fill:none" points="1538.6,1064.28 1538.6,1064.28 1557.66,1064.28 1538.6,1064.28 "/>
<path clip-path="url(#clip962)" d="M1562.42 1064.28 L1562.42 1064.28 L1581.48 1064.28 L1581.48 1064.28 L1562.42 1064.28 L1562.42 1064.28  Z" fill="#ff0000" fill-rule="evenodd" fill-opacity="1"/>
<polyline clip-path="url(#clip962)" style="stroke:#ff0000; stroke-linecap:round; stroke-linejoin:round; stroke-width:4; stroke-opacity:1; fill:none" points="1562.42,1064.28 1562.42,1064.28 1581.48,1064.28 1581.48,1064.28 1562.42,1064.28 "/>
<path clip-path="url(#clip962)" d="M1586.24 1064.28 L1586.24 1064.28 L1605.3 1064.28 L1605.3 1064.28 L1586.24 1064.28 L1586.24 1064.28  Z" fill="#ff0000" fill-rule="evenodd" fill-opacity="1"/>
<polyline clip-path="url(#clip962)" style="stroke:#ff0000; stroke-linecap:round; stroke-linejoin:round; stroke-width:4; stroke-opacity:1; fill:none" points="1586.24,1064.28 1586.24,1064.28 1605.3,1064.28 1586.24,1064.28 "/>
<path clip-path="url(#clip962)" d="M1610.06 1064.28 L1610.06 1064.28 L1629.11 1064.28 L1629.11 1064.28 L1610.06 1064.28 L1610.06 1064.28  Z" fill="#ff0000" fill-rule="evenodd" fill-opacity="1"/>
<polyline clip-path="url(#clip962)" style="stroke:#ff0000; stroke-linecap:round; stroke-linejoin:round; stroke-width:4; stroke-opacity:1; fill:none" points="1610.06,1064.28 1610.06,1064.28 1629.11,1064.28 1629.11,1064.28 1610.06,1064.28 "/>
<path clip-path="url(#clip962)" d="M1633.88 1064.28 L1633.88 1064.28 L1652.93 1064.28 L1652.93 1064.28 L1633.88 1064.28 L1633.88 1064.28  Z" fill="#ff0000" fill-rule="evenodd" fill-opacity="1"/>
<polyline clip-path="url(#clip962)" style="stroke:#ff0000; stroke-linecap:round; stroke-linejoin:round; stroke-width:4; stroke-opacity:1; fill:none" points="1633.88,1064.28 1633.88,1064.28 1652.93,1064.28 1633.88,1064.28 "/>
<path clip-path="url(#clip962)" d="M1657.7 1064.28 L1657.7 1064.28 L1676.75 1064.28 L1676.75 1064.28 L1657.7 1064.28 L1657.7 1064.28  Z" fill="#ff0000" fill-rule="evenodd" fill-opacity="1"/>
<polyline clip-path="url(#clip962)" style="stroke:#ff0000; stroke-linecap:round; stroke-linejoin:round; stroke-width:4; stroke-opacity:1; fill:none" points="1657.7,1064.28 1657.7,1064.28 1676.75,1064.28 1676.75,1064.28 1657.7,1064.28 "/>
<path clip-path="url(#clip962)" d="M1681.52 1064.28 L1681.52 1064.28 L1700.57 1064.28 L1700.57 1064.28 L1681.52 1064.28 L1681.52 1064.28  Z" fill="#ff0000" fill-rule="evenodd" fill-opacity="1"/>
<polyline clip-path="url(#clip962)" style="stroke:#ff0000; stroke-linecap:round; stroke-linejoin:round; stroke-width:4; stroke-opacity:1; fill:none" points="1681.52,1064.28 1681.52,1064.28 1700.57,1064.28 1681.52,1064.28 "/>
<path clip-path="url(#clip962)" d="M1705.34 1064.28 L1705.34 1064.28 L1724.39 1064.28 L1724.39 1064.28 L1705.34 1064.28 L1705.34 1064.28  Z" fill="#ff0000" fill-rule="evenodd" fill-opacity="1"/>
<polyline clip-path="url(#clip962)" style="stroke:#ff0000; stroke-linecap:round; stroke-linejoin:round; stroke-width:4; stroke-opacity:1; fill:none" points="1705.34,1064.28 1705.34,1064.28 1724.39,1064.28 1724.39,1064.28 1705.34,1064.28 "/>
<path clip-path="url(#clip962)" d="M1729.16 1064.28 L1729.16 1064.28 L1748.21 1064.28 L1748.21 1064.28 L1729.16 1064.28 L1729.16 1064.28  Z" fill="#ff0000" fill-rule="evenodd" fill-opacity="1"/>
<polyline clip-path="url(#clip962)" style="stroke:#ff0000; stroke-linecap:round; stroke-linejoin:round; stroke-width:4; stroke-opacity:1; fill:none" points="1729.16,1064.28 1729.16,1064.28 1748.21,1064.28 1729.16,1064.28 "/>
<path clip-path="url(#clip962)" d="M1752.97 1064.28 L1752.97 1064.28 L1772.03 1064.28 L1772.03 1064.28 L1752.97 1064.28 L1752.97 1064.28  Z" fill="#ff0000" fill-rule="evenodd" fill-opacity="1"/>
<polyline clip-path="url(#clip962)" style="stroke:#ff0000; stroke-linecap:round; stroke-linejoin:round; stroke-width:4; stroke-opacity:1; fill:none" points="1752.97,1064.28 1752.97,1064.28 1772.03,1064.28 1772.03,1064.28 1752.97,1064.28 "/>
<path clip-path="url(#clip962)" d="M1776.79 1064.28 L1776.79 1064.28 L1795.85 1064.28 L1795.85 1064.28 L1776.79 1064.28 L1776.79 1064.28  Z" fill="#ff0000" fill-rule="evenodd" fill-opacity="1"/>
<polyline clip-path="url(#clip962)" style="stroke:#ff0000; stroke-linecap:round; stroke-linejoin:round; stroke-width:4; stroke-opacity:1; fill:none" points="1776.79,1064.28 1776.79,1064.28 1795.85,1064.28 1776.79,1064.28 "/>
<circle clip-path="url(#clip962)" style="fill:#ff0000; stroke:none; fill-opacity:0" cx="285.717" cy="1064.28" r="2"/>
<circle clip-path="url(#clip962)" style="fill:#ff0000; stroke:none; fill-opacity:0" cx="309.536" cy="1064.28" r="2"/>
<circle clip-path="url(#clip962)" style="fill:#ff0000; stroke:none; fill-opacity:0" cx="333.355" cy="1064.28" r="2"/>
<circle clip-path="url(#clip962)" style="fill:#ff0000; stroke:none; fill-opacity:0" cx="357.174" cy="1064.28" r="2"/>
<circle clip-path="url(#clip962)" style="fill:#ff0000; stroke:none; fill-opacity:0" cx="380.993" cy="1064.28" r="2"/>
<circle clip-path="url(#clip962)" style="fill:#ff0000; stroke:none; fill-opacity:0" cx="404.812" cy="1064.28" r="2"/>
<circle clip-path="url(#clip962)" style="fill:#ff0000; stroke:none; fill-opacity:0" cx="428.631" cy="1064.22" r="2"/>
<circle clip-path="url(#clip962)" style="fill:#ff0000; stroke:none; fill-opacity:0" cx="452.45" cy="1064.28" r="2"/>
<circle clip-path="url(#clip962)" style="fill:#ff0000; stroke:none; fill-opacity:0" cx="476.27" cy="1063.63" r="2"/>
<circle clip-path="url(#clip962)" style="fill:#ff0000; stroke:none; fill-opacity:0" cx="500.089" cy="1064.28" r="2"/>
<circle clip-path="url(#clip962)" style="fill:#ff0000; stroke:none; fill-opacity:0" cx="523.908" cy="1059.75" r="2"/>
<circle clip-path="url(#clip962)" style="fill:#ff0000; stroke:none; fill-opacity:0" cx="547.727" cy="1064.28" r="2"/>
<circle clip-path="url(#clip962)" style="fill:#ff0000; stroke:none; fill-opacity:0" cx="571.546" cy="1042.82" r="2"/>
<circle clip-path="url(#clip962)" style="fill:#ff0000; stroke:none; fill-opacity:0" cx="595.365" cy="1064.28" r="2"/>
<circle clip-path="url(#clip962)" style="fill:#ff0000; stroke:none; fill-opacity:0" cx="619.184" cy="990.593" r="2"/>
<circle clip-path="url(#clip962)" style="fill:#ff0000; stroke:none; fill-opacity:0" cx="643.003" cy="1064.28" r="2"/>
<circle clip-path="url(#clip962)" style="fill:#ff0000; stroke:none; fill-opacity:0" cx="666.823" cy="872.386" r="2"/>
<circle clip-path="url(#clip962)" style="fill:#ff0000; stroke:none; fill-opacity:0" cx="690.642" cy="1064.28" r="2"/>
<circle clip-path="url(#clip962)" style="fill:#ff0000; stroke:none; fill-opacity:0" cx="714.461" cy="672.337" r="2"/>
<circle clip-path="url(#clip962)" style="fill:#ff0000; stroke:none; fill-opacity:0" cx="738.28" cy="1064.28" r="2"/>
<circle clip-path="url(#clip962)" style="fill:#ff0000; stroke:none; fill-opacity:0" cx="762.099" cy="419.636" r="2"/>
<circle clip-path="url(#clip962)" style="fill:#ff0000; stroke:none; fill-opacity:0" cx="785.918" cy="1064.28" r="2"/>
<circle clip-path="url(#clip962)" style="fill:#ff0000; stroke:none; fill-opacity:0" cx="809.737" cy="192.197" r="2"/>
<circle clip-path="url(#clip962)" style="fill:#ff0000; stroke:none; fill-opacity:0" cx="833.556" cy="1064.28" r="2"/>
<circle clip-path="url(#clip962)" style="fill:#ff0000; stroke:none; fill-opacity:0" cx="857.375" cy="76.8665" r="2"/>
<circle clip-path="url(#clip962)" style="fill:#ff0000; stroke:none; fill-opacity:0" cx="881.195" cy="1064.28" r="2"/>
<circle clip-path="url(#clip962)" style="fill:#ff0000; stroke:none; fill-opacity:0" cx="905.014" cy="114.844" r="2"/>
<circle clip-path="url(#clip962)" style="fill:#ff0000; stroke:none; fill-opacity:0" cx="928.833" cy="1064.28" r="2"/>
<circle clip-path="url(#clip962)" style="fill:#ff0000; stroke:none; fill-opacity:0" cx="952.652" cy="279.363" r="2"/>
<circle clip-path="url(#clip962)" style="fill:#ff0000; stroke:none; fill-opacity:0" cx="976.471" cy="1064.28" r="2"/>
<circle clip-path="url(#clip962)" style="fill:#ff0000; stroke:none; fill-opacity:0" cx="1000.29" cy="500.403" r="2"/>
<circle clip-path="url(#clip962)" style="fill:#ff0000; stroke:none; fill-opacity:0" cx="1024.11" cy="1064.28" r="2"/>
<circle clip-path="url(#clip962)" style="fill:#ff0000; stroke:none; fill-opacity:0" cx="1047.93" cy="709.015" r="2"/>
<circle clip-path="url(#clip962)" style="fill:#ff0000; stroke:none; fill-opacity:0" cx="1071.75" cy="1064.28" r="2"/>
<circle clip-path="url(#clip962)" style="fill:#ff0000; stroke:none; fill-opacity:0" cx="1095.57" cy="866.384" r="2"/>
<circle clip-path="url(#clip962)" style="fill:#ff0000; stroke:none; fill-opacity:0" cx="1119.39" cy="1064.28" r="2"/>
<circle clip-path="url(#clip962)" style="fill:#ff0000; stroke:none; fill-opacity:0" cx="1143.2" cy="966.118" r="2"/>
<circle clip-path="url(#clip962)" style="fill:#ff0000; stroke:none; fill-opacity:0" cx="1167.02" cy="1064.28" r="2"/>
<circle clip-path="url(#clip962)" style="fill:#ff0000; stroke:none; fill-opacity:0" cx="1190.84" cy="1020.65" r="2"/>
<circle clip-path="url(#clip962)" style="fill:#ff0000; stroke:none; fill-opacity:0" cx="1214.66" cy="1064.28" r="2"/>
<circle clip-path="url(#clip962)" style="fill:#ff0000; stroke:none; fill-opacity:0" cx="1238.48" cy="1046.8" r="2"/>
<circle clip-path="url(#clip962)" style="fill:#ff0000; stroke:none; fill-opacity:0" cx="1262.3" cy="1064.28" r="2"/>
<circle clip-path="url(#clip962)" style="fill:#ff0000; stroke:none; fill-opacity:0" cx="1286.12" cy="1057.94" r="2"/>
<circle clip-path="url(#clip962)" style="fill:#ff0000; stroke:none; fill-opacity:0" cx="1309.94" cy="1064.28" r="2"/>
<circle clip-path="url(#clip962)" style="fill:#ff0000; stroke:none; fill-opacity:0" cx="1333.76" cy="1062.19" r="2"/>
<circle clip-path="url(#clip962)" style="fill:#ff0000; stroke:none; fill-opacity:0" cx="1357.58" cy="1064.28" r="2"/>
<circle clip-path="url(#clip962)" style="fill:#ff0000; stroke:none; fill-opacity:0" cx="1381.4" cy="1063.65" r="2"/>
<circle clip-path="url(#clip962)" style="fill:#ff0000; stroke:none; fill-opacity:0" cx="1405.22" cy="1064.28" r="2"/>
<circle clip-path="url(#clip962)" style="fill:#ff0000; stroke:none; fill-opacity:0" cx="1429.03" cy="1064.11" r="2"/>
<circle clip-path="url(#clip962)" style="fill:#ff0000; stroke:none; fill-opacity:0" cx="1452.85" cy="1064.28" r="2"/>
<circle clip-path="url(#clip962)" style="fill:#ff0000; stroke:none; fill-opacity:0" cx="1476.67" cy="1064.24" r="2"/>
<circle clip-path="url(#clip962)" style="fill:#ff0000; stroke:none; fill-opacity:0" cx="1500.49" cy="1064.28" r="2"/>
<circle clip-path="url(#clip962)" style="fill:#ff0000; stroke:none; fill-opacity:0" cx="1524.31" cy="1064.27" r="2"/>
<circle clip-path="url(#clip962)" style="fill:#ff0000; stroke:none; fill-opacity:0" cx="1548.13" cy="1064.28" r="2"/>
<circle clip-path="url(#clip962)" style="fill:#ff0000; stroke:none; fill-opacity:0" cx="1571.95" cy="1064.28" r="2"/>
<circle clip-path="url(#clip962)" style="fill:#ff0000; stroke:none; fill-opacity:0" cx="1595.77" cy="1064.28" r="2"/>
<circle clip-path="url(#clip962)" style="fill:#ff0000; stroke:none; fill-opacity:0" cx="1619.59" cy="1064.28" r="2"/>
<circle clip-path="url(#clip962)" style="fill:#ff0000; stroke:none; fill-opacity:0" cx="1643.41" cy="1064.28" r="2"/>
<circle clip-path="url(#clip962)" style="fill:#ff0000; stroke:none; fill-opacity:0" cx="1667.23" cy="1064.28" r="2"/>
<circle clip-path="url(#clip962)" style="fill:#ff0000; stroke:none; fill-opacity:0" cx="1691.04" cy="1064.28" r="2"/>
<circle clip-path="url(#clip962)" style="fill:#ff0000; stroke:none; fill-opacity:0" cx="1714.86" cy="1064.28" r="2"/>
<circle clip-path="url(#clip962)" style="fill:#ff0000; stroke:none; fill-opacity:0" cx="1738.68" cy="1064.28" r="2"/>
<circle clip-path="url(#clip962)" style="fill:#ff0000; stroke:none; fill-opacity:0" cx="1762.5" cy="1064.28" r="2"/>
<circle clip-path="url(#clip962)" style="fill:#ff0000; stroke:none; fill-opacity:0" cx="1786.32" cy="1064.28" r="2"/>
</svg>
